# xmcd
# 
# Track frame offsets:
#     183
#     19743
#     47478
#     66683
# 
# Disc length: 1251
# 
# Revision: 1
# Processed by: cddbd v1.5.2PL0 Copyright (c) Steve Scherf et al.
# Submitted via: fre:ac v1.0.31
# 
DISCID=3204e104
DTITLE=A Certain Ratio - Shack Up
DYEAR=0
DGENRE=Rock
TTITLE0=Shack Up [Radio Edit]
TTITLE1=Shack Up [Work Mix]
TTITLE2=Shack Up [Wipe Out Edit]
TTITLE3=Life's A Scream [Shaven Not Stirred Mix]
EXTD=
EXTT0=
EXTT1=
EXTT2=
EXTT3=
PLAYORDER=
